<?xml version="1.0" encoding="UTF-8"?>
<svg id="Layer_1" data-name="Layer 1" xmlns="http://www.w3.org/2000/svg" viewBox="0 0 580 250">
  <defs>
    <style>
      .cls-1 {
        fill: #1a1a18;
      }
    </style>
  </defs>
  <polygon class="cls-1" points="234.28 135 222.37 174.83 210.18 135 198.38 135 192.58 135 192.58 145 198.28 145 198.28 195 192.58 195 192.58 205 198.38 205 208.58 205 214.48 205 214.48 195 208.68 195 208.68 160.52 222.28 200.6 235.78 160.55 235.78 195 230.08 195 230.08 205 235.88 205 246.08 205 251.98 205 251.98 195 246.18 195 246.18 145 251.98 145 251.98 135 246.08 135 234.28 135"/>
  <polygon class="cls-1" points="256.02 135 256.02 145 261.92 145 261.92 195 256.02 195 256.02 205 262.02 205 299.72 205 299.72 183.4 288.82 183.4 288.82 195 273.12 195 273.12 175 287.72 175 287.72 165 273.12 165 273.12 145 288.82 145 288.82 156.6 299.72 156.6 299.72 135 262.02 135 256.02 135"/>
  <polygon class="cls-1" points="350.48 135 343.38 135 343.38 145 350.38 145 350.38 183.23 321.78 135 311.38 135 304.28 135 304.28 145 311.28 145 311.28 195 304.28 195 304.28 205 311.38 205 321.88 205 328.98 205 328.98 195 321.98 195 321.98 156.75 350.58 205 361.08 205 361.08 145 368.08 145 368.08 135 360.98 135 350.48 135"/>
  <polygon class="cls-1" points="114.63 195 106.93 195 106.93 145 112.03 145 112.03 135 106.83 135 95.93 135 90.73 135 90.73 145 95.83 145 95.83 195 90.73 195 90.73 205 95.93 205 125.33 205 125.33 183.4 114.63 183.4 114.63 195"/>
  <polygon class="cls-1" points="35.76 135 28.76 142 28.76 198 35.76 205 76.16 205 83.16 198 83.16 179.3 71.86 179.3 71.86 195.1 40.16 195.1 40.16 145 71.86 145 71.86 160.7 83.16 160.7 83.16 142 76.16 135 35.76 135"/>
  <polygon class="cls-1" points="129.72 135 129.72 145 137.42 145 137.42 195 129.72 195 129.72 205 137.52 205 187.82 205 187.82 183.4 176.42 183.4 176.42 195 148.82 195 148.82 175 168.92 175 168.92 165 148.82 165 148.82 145 176.42 145 176.42 156.6 187.82 156.6 187.82 135 137.52 135 129.72 135"/>
  <polygon class="cls-1" points="485.6 135 479.3 135 479.3 145 485.5 145 485.5 180.63 463.1 135 452.9 135 446.7 135 446.7 145 452.8 145 452.8 195 446.7 195 446.7 205 452.9 205 463.2 205 469.4 205 469.4 195 463.3 195 463.3 159.29 485.7 205 495.9 205 495.9 145 502.1 145 502.1 135 495.8 135 485.6 135"/>
  <polygon class="cls-1" points="551.24 156.6 551.24 135 512.64 135 506.44 135 506.44 145 512.54 145 512.54 195 506.44 195 506.44 205 512.64 205 551.24 205 551.24 183.4 540.34 183.4 540.34 195 523.64 195 523.64 175 538.74 175 538.74 165 523.64 165 523.64 145 540.34 145 540.34 156.6 551.24 156.6"/>
  <polygon class="cls-1" points="423.96 135 417.06 135 417.06 145 423.86 145 423.86 195 417.06 195 417.06 205 423.96 205 434.96 205 441.86 205 441.86 195 435.06 195 435.06 145 441.86 145 441.86 135 434.96 135 423.96 135"/>
  <polygon class="cls-1" points="372.07 156.6 382.47 156.6 382.47 144.8 387.17 144.8 387.17 195 378.67 195 378.67 205 387.37 205 397.97 205 406.77 205 406.77 195 398.17 195 398.17 144.8 402.87 144.8 402.87 156.6 413.27 156.6 413.27 135 372.07 135 372.07 156.6"/>
  <polygon class="cls-1" points="439.83 89.8 439.83 105 427.03 105 427.03 115 440.03 115 451.03 115 463.93 115 463.93 105 451.23 105 451.23 89.9 473.09 55 479.93 55 479.93 45 453.93 45 453.93 55 461.28 55 445.63 79.7 429.81 55 437.03 55 437.03 45 410.63 45 410.63 55 417.79 55 439.83 89.8"/>
  <polygon class="cls-1" points="244.96 108 251.96 115 281.56 115 288.56 108 288.56 55 294.96 55 294.96 45 270.96 45 270.96 55 277.36 55 277.36 105 256.16 105 256.16 55 262.56 55 262.56 45 238.56 45 238.56 55 244.96 55 244.96 108"/>
  <polygon class="cls-1" points="200.86 105 191.36 105 191.36 89.4 205.7 55 210.76 55 210.76 45 189.66 45 189.66 55 194.54 55 185.86 79.3 177.09 55 181.86 55 181.86 45 160.36 45 160.36 55 165.72 55 180.16 89.3 180.16 105 170.66 105 170.66 115 180.36 115 191.16 115 200.86 115 200.86 105"/>
  <polygon class="cls-1" points="406.11 105 388.71 105 388.71 55 395.31 55 395.31 45 370.81 45 370.81 55 377.41 55 377.41 105 370.81 105 370.81 115 377.51 115 417.01 115 417.01 93.4 406.11 93.4 406.11 105"/>
  <polygon class="cls-1" points="140.47 105 134.67 105 134.67 115 140.57 115 150.87 115 156.77 115 156.77 105 150.97 105 150.97 55 156.77 55 156.77 45 139.07 45 126.55 85.1 113.77 45 96.07 45 96.07 55 101.97 55 101.97 105 96.07 105 96.07 115 102.07 115 112.27 115 118.27 115 118.27 105 112.37 105 112.37 70.37 126.47 110.6 140.47 70.65 140.47 105"/>
  <polygon class="cls-1" points="354.75 115 361.74 108 361.74 75 337.85 75 337.85 85 350.35 85 350.35 105.1 315.05 105.1 315.05 55 350.35 55 350.35 66.6 361.74 66.6 361.74 52 354.75 45 310.44 45 303.45 52 303.45 108 310.44 115 354.75 115"/>
</svg>